Coordinates
version=1
nRows=8
nColumns=36
inDegrees=yes

Units are S.I. units (second, meters, Newtons, ...)
If the header above contains a line with 'inDegrees', this indicates whether rotational values are in degrees (yes) or radians (no).

endheader
time	pelvis_tilt	pelvis_list	pelvis_rotation	pelvis_tx	pelvis_ty	pelvis_tz	hip_flexion_r	hip_adduction_r	hip_rotation_r	knee_angle_r	knee_angle_r_beta	ankle_angle_r	subtalar_angle_r	mtp_angle_r	hip_flexion_l	hip_adduction_l	hip_rotation_l	knee_angle_l	knee_angle_l_beta	ankle_angle_l	subtalar_angle_l	mtp_angle_l	lumbar_extension	lumbar_bending	lumbar_rotation	arm_flex_r	arm_add_r	arm_rot_r	elbow_flex_r	pro_sup_r	arm_flex_l	arm_add_l	arm_rot_l	elbow_flex_l	pro_sup_l
      5.66666670	     -1.51206437	      2.69014788	     -1.20033091	      0.55845083	      0.97065662	     -0.09648885	     -2.19862657	     -7.53920102	      1.59220981	      3.06323863	      0.05346360	      6.27909070	     -9.22857193	     -7.49999987	     -3.70536736	     -6.82900816	     -6.32478803	      2.79896002	      0.04885107	      8.50325255	     -4.03093696	     -7.49999987	      4.44237966	      0.36646284	      3.60653668	    -30.99803443	    -39.46745661	     28.63751876	    102.06225024	     91.52368199	    -31.48059567	    -34.32277857	     19.83613838	     98.51829391	     86.86385236
      5.68333330	     -1.44548538	      2.74865118	     -1.22251059	      0.55796638	      0.97145471	     -0.10214077	     -2.25915089	     -7.69270581	      1.68284652	      3.01594374	      0.05263815	      6.11355434	     -9.37882062	     -7.49999987	     -3.79155761	     -6.67079168	     -6.20811738	      2.72581954	      0.04757453	      8.48030131	     -4.11682022	     -7.49999987	      4.47142872	      0.55720873	      3.47029960	    -30.35000940	    -40.43015565	     29.95518462	    102.15854132	     92.13473848	    -30.82174534	    -35.13743860	     21.50042253	     98.22316710	     87.74246472
      5.70000000	     -1.42358322	      2.79266310	     -1.36460194	      0.55522803	      0.96958836	     -0.09914399	     -2.11813004	     -7.76960059	      1.98322294	      3.07084962	      0.05359644	      6.26703625	     -9.50384768	     -7.49999987	     -3.75960790	     -6.57189599	     -6.22115815	      2.76190011	      0.04820425	      8.57771592	     -4.30341289	     -7.49999987	      4.34192802	      0.66427764	      3.30685135	    -29.70447803	    -41.11795275	     30.76841201	    102.42266481	     92.47903643	    -30.39195562	    -35.87922238	     22.89871497	     98.63204106	     88.32818547
      5.71666670	     -1.33721492	      2.83965778	     -1.47435521	      0.55282713	      0.96838299	     -0.09682195	     -2.07488456	     -7.80642084	      2.21856897	      3.03139388	      0.05290780	      6.21450830	     -9.68147039	     -7.49999987	     -3.77484924	     -6.52135087	     -6.10990673	      2.78208850	      0.04855660	      8.48003556	     -4.42036604	     -7.49999987	      4.19861467	      0.73780012	      3.34685243	    -28.53678594	    -41.80942287	     32.54215065	    102.53340702	     92.11110270	    -29.25546312	    -36.92079116	     24.94693564	     98.60013920	     88.50102588
      5.73333330	     -1.30426752	      2.87576446	     -1.64072769	      0.55274572	      0.96780896	     -0.09611830	     -1.90827701	     -7.81125337	      2.49752947	      3.12605863	      0.05456002	      6.29632966	     -9.91533384	     -7.49999987	     -3.74335366	     -6.51325579	     -6.16366710	      2.83057457	      0.04940285	      8.48956743	     -4.60602409	     -7.49999987	      4.00313405	      0.81638966	      3.32083064	    -27.49210683	    -42.51910425	     34.03458240	    102.80494377	     91.05153957	    -28.37636473	    -37.72194326	     26.60281826	     98.40723756	     87.97737389
      5.75000000	     -1.33160537	      2.92654871	     -1.72567541	      0.55561899	      0.96950130	     -0.09878351	     -1.83855908	     -7.88271414	      2.54344918	      3.11893167	      0.05443563	      6.28890446	     -9.89418237	     -7.49999987	     -3.70715356	     -6.47543816	     -6.18966631	      2.84576573	      0.04966798	      8.46158530	     -4.61783143	     -7.49999987	      3.92490357	      0.91365246	      3.22466920	    -27.46425414	    -42.60467261	     34.06457547	    102.76131462	     91.08107162	    -28.30857170	    -37.80195697	     26.64002353	     98.37075918	     88.02119580
      5.76666670	     -1.28406065	      2.94121383	     -1.93158463	      0.55539471	      0.97039374	     -0.09830136	     -1.72542055	     -7.91372714	      2.79882062	      3.26749799	      0.05702860	      6.33661346	     -9.88491062	     -7.49999987	     -3.79604053	     -6.44341759	     -6.21362423	      2.80813867	      0.04901127	      8.25720192	     -5.01983542	     -7.49999987	      3.95067330	      1.03397005	      3.24758787	    -26.31707882	    -43.27573187	     35.88956230	    102.56383698	     89.66306509	    -27.31989970	    -38.14423885	     28.32138718	     97.50577204	     87.04230924
      5.78333330	     -1.27994546	      2.94860286	     -2.01810773	      0.55874427	      0.97035651	     -0.09576859	     -1.75576996	     -7.87972579	      3.07040520	      3.26031349	      0.05690321	      6.37198349	     -9.99122428	     -7.49999987	     -3.86486098	     -6.45957772	     -6.19030339	      2.81978938	      0.04921461	      8.16423375	     -5.10120057	     -7.49999987	      4.02181210	      0.91375470	      2.59511035	    -24.43863244	    -43.61652794	     38.08075142	    101.48025233	     96.50412377	    -28.25419133	    -37.72807263	     26.91874223	     96.75678437	     97.16089302
